<svg width="163" height="93" viewBox="0 0 163 93" fill="none" xmlns="http://www.w3.org/2000/svg">
<g clip-path="url(#clip0_2503_438)">
<rect width="163" height="93" fill="white"/>
<rect width="163" height="92.9936" fill="white"/>
<g clip-path="url(#clip1_2503_438)">
<path d="M81.2352 12.5386H12.5381V80.4552H81.2352V12.5386Z" fill="#806F7F"/>
<path d="M150.461 21.0933H99.0708V71.8998H150.461V21.0933Z" fill="#3D3039"/>
<path d="M16.3725 51.268V39.9544H16.3876L22.2017 48.129L21.573 47.9923L27.3871 39.9544H27.4022V51.268H25.9146V43.2909L26.0216 44.0342L21.8494 49.8881H21.8182L17.5685 44.0342L17.8137 43.3517V51.2689H16.3716L16.3725 51.268Z" fill="#F4F4F4"/>
<path d="M29.4888 51.2682L34.3209 39.848H34.4128L39.2601 51.2682H37.5575L33.9374 42.1537L34.9961 41.4713L30.9612 51.2682H29.4888ZM32.3267 47.1126H36.4534L36.9439 48.3867H31.8968L32.3267 47.1126Z" fill="#F4F4F4"/>
<path d="M44.2915 40.3023C44.8543 40.3023 45.3725 40.3755 45.8487 40.5219C46.3241 40.6683 46.7388 40.886 47.0911 41.1744C47.4434 41.4618 47.7199 41.8189 47.9197 42.243C48.1194 42.6672 48.2184 43.153 48.2184 43.6988C48.2184 44.1335 48.1542 44.5585 48.0267 44.9729C47.8983 45.3873 47.6887 45.7638 47.3979 46.1024C47.1063 46.4419 46.7228 46.7143 46.2474 46.9215C45.772 47.1287 45.1807 47.2319 44.4753 47.2319H42.8333V51.2658H41.3457V40.3006H44.2915V40.3023ZM44.4449 45.8079C44.8846 45.8079 45.2503 45.7418 45.5419 45.6104C45.8336 45.479 46.061 45.3097 46.2251 45.1025C46.3883 44.8953 46.5061 44.6757 46.5774 44.443C46.6488 44.2102 46.6844 43.9836 46.6844 43.7605C46.6844 43.5374 46.6461 43.3099 46.5694 43.078C46.4927 42.8453 46.3696 42.6257 46.201 42.4185C46.0325 42.2113 45.8122 42.042 45.5411 41.9106C45.2699 41.7792 44.9399 41.7131 44.552 41.7131H42.8333V45.8079H44.4441H44.4449ZM46.2706 46.657L49.1701 51.2676H47.4514L44.4904 46.7029L46.2706 46.657Z" fill="#F4F4F4"/>
<path d="M54.3087 40.3025C55.4236 40.3025 56.3003 40.5273 56.9398 40.9779C57.5783 41.4276 57.8985 42.1224 57.8985 43.0632C57.8985 43.6495 57.7656 44.1548 57.4998 44.5798C57.2332 45.0039 56.8631 45.3381 56.3877 45.5805C55.9123 45.823 55.3522 45.965 54.7083 46.0047L54.4942 45.2314C55.2407 45.2516 55.9105 45.383 56.5036 45.6255C57.0967 45.868 57.5667 46.2075 57.9146 46.6421C58.2624 47.0768 58.4363 47.5927 58.4363 48.1887C58.4363 48.7345 58.3364 49.2027 58.1375 49.5916C57.9378 49.9804 57.6622 50.2996 57.309 50.5465C56.9558 50.7942 56.5625 50.9768 56.1273 51.0932C55.6929 51.2095 55.2345 51.2677 54.7547 51.2677H51.4565V40.3025H54.3096H54.3087ZM54.6147 45.0947C55.2283 45.0947 55.6733 44.9281 55.9498 44.5948C56.2263 44.2606 56.3645 43.8567 56.3645 43.3815C56.3645 42.7951 56.1852 42.371 55.8276 42.1074C55.47 41.8446 54.9892 41.7132 54.3854 41.7132H52.9433V45.0947H54.6155H54.6147ZM54.6762 49.9028C55.0954 49.9028 55.4735 49.842 55.8115 49.7212C56.1487 49.6004 56.4171 49.4108 56.6169 49.1525C56.8167 48.8941 56.9157 48.5784 56.9157 48.2046C56.9157 47.7796 56.8006 47.4463 56.5705 47.2038C56.3404 46.9613 56.047 46.7868 55.6885 46.6801C55.3308 46.5743 54.9625 46.5213 54.5843 46.5213H52.9424V49.9028H54.6762Z" fill="#F4F4F4"/>
<path d="M60.936 40.3025H62.4236V49.857H68.0531V51.2677H60.9351V40.3025H60.936Z" fill="#F4F4F4"/>
<path d="M70.4761 40.3025H77.6859V41.7132H71.9637V45.0497H77.0723V46.4755H71.9637V49.8578H77.9009V51.2686H70.4761V40.3033V40.3025Z" fill="#F4F4F4"/>
<path d="M94.9289 51.6162L86.3536 43.0175L86.7826 43.1233L86.8138 51.267H85.3262V39.9684H85.4029L93.8712 48.5971L93.534 48.5213L93.5028 40.3017H94.9905V51.6153H94.9289V51.6162Z" fill="black"/>
<path d="M102.706 51.2681V39.9546H102.722L108.536 48.1291L107.907 47.9925L113.721 39.9546H113.736V51.2681H112.249V43.2911L112.356 44.0344L108.183 49.8882H108.152L103.902 44.0344L104.148 43.3519V51.269H102.706L102.706 51.2681Z" fill="#F4F4F4"/>
<path d="M116.236 45.7933C116.236 45.035 116.382 44.3173 116.673 43.6401C116.964 42.9629 117.37 42.3642 117.892 41.8431C118.414 41.3229 119.014 40.9155 119.695 40.6219C120.374 40.3292 121.108 40.1819 121.896 40.1819C122.683 40.1819 123.389 40.3283 124.074 40.6219C124.759 40.9155 125.364 41.3229 125.891 41.8431C126.418 42.3642 126.829 42.9629 127.126 43.6401C127.423 44.3173 127.572 45.0403 127.572 45.8092C127.572 46.5781 127.423 47.3011 127.126 47.9774C126.829 48.6554 126.421 49.2488 125.899 49.7594C125.378 50.2699 124.775 50.6693 124.09 50.9577C123.404 51.246 122.673 51.3897 121.896 51.3897C121.118 51.3897 120.374 51.2486 119.695 50.9656C119.014 50.6825 118.414 50.2858 117.892 49.7752C117.37 49.2647 116.964 48.6731 116.673 48.0012C116.381 47.3293 116.236 46.5931 116.236 45.7942V45.7933ZM117.77 45.7933C117.77 46.3797 117.874 46.9228 118.085 47.4237C118.294 47.9245 118.59 48.3662 118.974 48.7507C119.357 49.1351 119.797 49.4358 120.293 49.6527C120.789 49.8705 121.328 49.9789 121.912 49.9789C122.495 49.9789 123.034 49.8705 123.53 49.6527C124.026 49.4358 124.461 49.1369 124.834 48.7577C125.207 48.3786 125.501 47.9368 125.716 47.4307C125.931 46.9255 126.038 46.3841 126.038 45.8083C126.038 45.2325 125.931 44.6762 125.716 44.17C125.502 43.6648 125.207 43.2169 124.834 42.828C124.461 42.4392 124.021 42.135 123.515 41.9181C123.009 41.7003 122.469 41.5918 121.897 41.5918C121.324 41.5918 120.769 41.7029 120.263 41.9251C119.757 42.1482 119.316 42.4507 118.944 42.8351C118.57 43.2195 118.281 43.6666 118.077 44.1771C117.872 44.6876 117.77 45.2264 117.77 45.7924V45.7933Z" fill="#F4F4F4"/>
<path d="M133.019 40.3025C133.581 40.3025 134.1 40.3757 134.576 40.522C135.051 40.6684 135.466 40.8862 135.818 41.1745C136.17 41.462 136.447 41.8191 136.647 42.2432C136.847 42.6673 136.946 43.1531 136.946 43.6989C136.946 44.1336 136.881 44.5586 136.754 44.973C136.625 45.3875 136.416 45.764 136.125 46.1026C135.833 46.442 135.45 46.7145 134.974 46.9217C134.499 47.1289 133.908 47.2321 133.202 47.2321H131.56V51.266H130.073V40.3007H133.019V40.3025ZM133.172 45.8081C133.612 45.8081 133.977 45.7419 134.269 45.6105C134.561 45.4792 134.788 45.3099 134.952 45.1027C135.115 44.8955 135.233 44.6759 135.304 44.4431C135.376 44.2103 135.411 43.9837 135.411 43.7607C135.411 43.5376 135.373 43.3101 135.296 43.0782C135.22 42.8454 135.097 42.6259 134.928 42.4187C134.76 42.2114 134.539 42.0422 134.268 41.9108C133.997 41.7794 133.667 41.7133 133.279 41.7133H131.56V45.8081H133.171H133.172ZM134.998 46.6572L137.897 51.2678H136.178L133.217 46.703L134.998 46.6572Z" fill="#F4F4F4"/>
<path d="M140.182 40.3026H147.392V41.7134H141.669V45.0499H146.778V46.4757H141.669V49.858H147.606V51.2688H140.182V40.3035V40.3026Z" fill="#F4F4F4"/>
</g>
</g>
<defs>
<clipPath id="clip0_2503_438">
<rect width="163" height="93" fill="white"/>
</clipPath>
<clipPath id="clip1_2503_438">
<rect width="137.923" height="67.9167" fill="white" transform="translate(12.5381 12.5386)"/>
</clipPath>
</defs>
</svg>
