<svg width="126" height="72" viewBox="0 0 126 72" fill="none" xmlns="http://www.w3.org/2000/svg">
<g clip-path="url(#clip0_2503_29)">
<rect width="126" height="71.8846" fill="white"/>
<rect width="126" height="71.8846" fill="white"/>
<g clip-path="url(#clip1_2503_29)">
<path d="M62.7952 9.69238H9.69189V62.1924H62.7952V9.69238Z" fill="#806F7F"/>
<path d="M116.307 16.3052H76.582V55.579H116.307V16.3052Z" fill="#3D3039"/>
<path d="M12.656 39.6305V30.885H12.6677L17.162 37.204L16.676 37.0984L21.1703 30.885H21.182V39.6305H20.0321V33.4641L20.1148 34.0387L16.8897 38.5638H16.8656L13.5805 34.0387L13.7701 33.5112V39.6311H12.6553L12.656 39.6305Z" fill="#F4F4F4"/>
<path d="M22.7949 39.6307L26.5302 30.8027H26.6012L30.3482 39.6307H29.0321L26.2337 32.5851L27.0521 32.0575L23.9332 39.6307H22.7949ZM24.9887 36.4183H28.1786L28.5578 37.4032H24.6564L24.9887 36.4183Z" fill="#F4F4F4"/>
<path d="M34.2376 31.154C34.6726 31.154 35.0732 31.2105 35.4413 31.3237C35.8088 31.4368 36.1294 31.6052 36.4017 31.828C36.674 32.0502 36.8877 32.3263 37.0422 32.6541C37.1966 32.982 37.2731 33.3575 37.2731 33.7794C37.2731 34.1155 37.2235 34.444 37.1249 34.7643C37.0256 35.0847 36.8636 35.3757 36.6389 35.6374C36.4134 35.8998 36.117 36.1105 35.7495 36.2706C35.382 36.4308 34.925 36.5106 34.3796 36.5106H33.1104V39.6288H31.9604V31.1526H34.2376V31.154ZM34.3562 35.4098C34.6961 35.4098 34.9787 35.3587 35.2042 35.2571C35.4296 35.1556 35.6054 35.0247 35.7323 34.8645C35.8584 34.7043 35.9494 34.5346 36.0046 34.3547C36.0597 34.1747 36.0873 33.9996 36.0873 33.8271C36.0873 33.6547 36.0577 33.4788 35.9984 33.2996C35.9391 33.1197 35.844 32.9499 35.7137 32.7898C35.5834 32.6296 35.4131 32.4987 35.2035 32.3972C34.9939 32.2956 34.7388 32.2445 34.4389 32.2445H33.1104V35.4098H34.3555H34.3562ZM35.7674 36.0662L38.0087 39.6302H36.6802L34.3913 36.1016L35.7674 36.0662Z" fill="#F4F4F4"/>
<path d="M41.9811 31.1541C42.8429 31.1541 43.5206 31.3279 44.0149 31.6761C44.5085 32.0238 44.7561 32.5609 44.7561 33.2881C44.7561 33.7414 44.6533 34.1319 44.4479 34.4604C44.2417 34.7883 43.9556 35.0466 43.5882 35.234C43.2207 35.4215 42.7878 35.5312 42.29 35.5619L42.1245 34.9641C42.7016 34.9798 43.2193 35.0814 43.6778 35.2688C44.1363 35.4562 44.4996 35.7186 44.7685 36.0547C45.0373 36.3907 45.1718 36.7894 45.1718 37.2502C45.1718 37.6721 45.0946 38.034 44.9408 38.3346C44.7864 38.6352 44.5734 38.8819 44.3003 39.0727C44.0273 39.2643 43.7233 39.4054 43.3869 39.4953C43.0511 39.5853 42.6968 39.6303 42.3258 39.6303H39.7764V31.1541H41.9818H41.9811ZM42.2176 34.8585C42.6919 34.8585 43.0359 34.7297 43.2497 34.472C43.4634 34.2137 43.5702 33.9015 43.5702 33.5342C43.5702 33.0809 43.4317 32.7531 43.1552 32.5493C42.8788 32.3462 42.5072 32.2446 42.0404 32.2446H40.9256V34.8585H42.2183H42.2176ZM42.2652 38.5752C42.5892 38.5752 42.8815 38.5282 43.1428 38.4348C43.4034 38.3414 43.6109 38.1949 43.7654 37.9952C43.9198 37.7954 43.9963 37.5514 43.9963 37.2624C43.9963 36.9339 43.9074 36.6763 43.7295 36.4888C43.5516 36.3014 43.3248 36.1665 43.0477 36.084C42.7712 36.0022 42.4865 35.9613 42.1942 35.9613H40.9249V38.5752H42.2652Z" fill="#F4F4F4"/>
<path d="M47.1037 31.1541H48.2537V38.5397H52.6053V39.6303H47.103V31.1541H47.1037Z" fill="#F4F4F4"/>
<path d="M54.4785 31.1541H60.0518V32.2446H55.6285V34.8237H59.5775V35.9259H55.6285V38.5404H60.2179V39.631H54.4785V31.1547V31.1541Z" fill="#F4F4F4"/>
<path d="M73.3805 39.8995L66.7517 33.2527L67.0833 33.3345L67.1075 39.6296H65.9575V30.8958H66.0168L72.5629 37.5658L72.3023 37.5072L72.2781 31.1534H73.4281V39.8988H73.3805V39.8995Z" fill="black"/>
<path d="M79.3923 39.6305V30.885H79.404L83.8983 37.204L83.4123 37.0984L87.9066 30.885H87.9184V39.6305H86.7684V33.4641L86.8511 34.0387L83.626 38.5638H83.6019L80.3168 34.0387L80.5064 33.5112V39.6311H79.3916L79.3923 39.6305Z" fill="#F4F4F4"/>
<path d="M89.8506 35.3984C89.8506 34.8123 89.9637 34.2574 90.1884 33.734C90.4138 33.2105 90.7275 32.7477 91.1308 32.3449C91.5342 31.9428 91.9981 31.6279 92.5242 31.4009C93.0495 31.1746 93.6169 31.0608 94.2257 31.0608C94.8344 31.0608 95.3797 31.1739 95.9092 31.4009C96.4387 31.6279 96.9068 31.9428 97.3143 32.3449C97.7217 32.7477 98.0395 33.2105 98.2691 33.734C98.4987 34.2574 98.6131 34.8163 98.6131 35.4107C98.6131 36.005 98.4987 36.5639 98.2691 37.0867C98.0395 37.6109 97.7238 38.0696 97.3205 38.4642C96.9172 38.8588 96.4511 39.1676 95.9216 39.3905C95.3915 39.6134 94.8268 39.7245 94.2257 39.7245C93.6245 39.7245 93.0495 39.6154 92.5242 39.3966C91.9981 39.1778 91.5342 38.8711 91.1308 38.4765C90.7275 38.0818 90.4132 37.6245 90.1884 37.1051C89.963 36.5857 89.8506 36.0166 89.8506 35.3991V35.3984ZM91.0364 35.3984C91.0364 35.8517 91.1171 36.2715 91.2798 36.6587C91.4418 37.0458 91.6707 37.3873 91.9671 37.6845C92.2636 37.9816 92.6034 38.2141 92.9868 38.3817C93.3701 38.5501 93.7872 38.6339 94.2381 38.6339C94.6889 38.6339 95.1054 38.5501 95.4894 38.3817C95.8727 38.2141 96.2084 37.983 96.4973 37.6899C96.7855 37.3968 97.013 37.0554 97.1791 36.6641C97.3453 36.2736 97.428 35.8551 97.428 35.41C97.428 34.9649 97.3453 34.5348 97.1791 34.1436C97.0137 33.7531 96.7855 33.4068 96.4973 33.1062C96.2084 32.8057 95.8685 32.5705 95.4776 32.4028C95.086 32.2345 94.669 32.1506 94.2263 32.1506C93.7837 32.1506 93.3549 32.2365 92.9633 32.4083C92.5724 32.5807 92.2319 32.8145 91.9437 33.1117C91.6548 33.4089 91.4314 33.7544 91.2736 34.1491C91.115 34.5437 91.0364 34.9602 91.0364 35.3977V35.3984Z" fill="#F4F4F4"/>
<path d="M102.824 31.154C103.259 31.154 103.66 31.2105 104.028 31.3237C104.395 31.4368 104.716 31.6052 104.988 31.828C105.26 32.0502 105.474 32.3263 105.629 32.6541C105.783 32.982 105.86 33.3575 105.86 33.7794C105.86 34.1155 105.81 34.444 105.711 34.7643C105.612 35.0847 105.45 35.3757 105.225 35.6374C105 35.8998 104.703 36.1105 104.336 36.2706C103.968 36.4308 103.511 36.5106 102.966 36.5106H101.697V39.6288H100.547V31.1526H102.824V31.154ZM102.943 35.4098C103.282 35.4098 103.565 35.3587 103.791 35.2571C104.016 35.1556 104.192 35.0247 104.319 34.8645C104.445 34.7043 104.536 34.5346 104.591 34.3547C104.646 34.1747 104.674 33.9996 104.674 33.8271C104.674 33.6547 104.644 33.4788 104.585 33.2996C104.526 33.1197 104.43 32.9499 104.3 32.7898C104.17 32.6296 103.999 32.4987 103.79 32.3972C103.58 32.2956 103.325 32.2445 103.025 32.2445H101.697V35.4098H102.942H102.943ZM104.354 36.0662L106.595 39.6302H105.267L102.978 36.1016L104.354 36.0662Z" fill="#F4F4F4"/>
<path d="M108.361 31.1541H113.934V32.2446H109.511V34.8237H113.46V35.9259H109.511V38.5404H114.1V39.631H108.361V31.1547V31.1541Z" fill="#F4F4F4"/>
</g>
</g>
<defs>
<clipPath id="clip0_2503_29">
<rect width="126" height="71.8846" fill="white"/>
</clipPath>
<clipPath id="clip1_2503_29">
<rect width="106.615" height="52.5" fill="white" transform="translate(9.69189 9.69238)"/>
</clipPath>
</defs>
</svg>
